<svg xmlns="http://www.w3.org/2000/svg" width="62.172" height="32.69" viewBox="0 0 62.172 32.69"><g transform="translate(0.698 0.5)"><g transform="translate(0 0.867)"><path d="M51.62-75.42v4.88h2.92l2.49-3.07h3.28v-1.81Z" transform="translate(-7 91.353)" fill="none" stroke="#fff" stroke-linecap="round" stroke-linejoin="round" stroke-width="1"/><rect width="8.692" height="4.886" transform="translate(35.923 15.932)" fill="none" stroke="#fff" stroke-linecap="round" stroke-linejoin="round" stroke-width="1"/><rect width="8.692" height="4.886" transform="translate(27.231 15.932)" fill="none" stroke="#fff" stroke-linecap="round" stroke-linejoin="round" stroke-width="1"/><rect width="8.69" height="4.88" transform="translate(18.54 15.933)" fill="none" stroke="#fff" stroke-linecap="round" stroke-linejoin="round" stroke-width="1"/><rect width="8.692" height="4.886" transform="translate(44.615 11.047)" fill="none" stroke="#fff" stroke-linecap="round" stroke-linejoin="round" stroke-width="1"/><rect width="8.692" height="4.886" transform="translate(35.923 11.047)" fill="none" stroke="#fff" stroke-linecap="round" stroke-linejoin="round" stroke-width="1"/><rect width="8.692" height="4.886" transform="translate(27.231 11.047)" fill="none" stroke="#fff" stroke-linecap="round" stroke-linejoin="round" stroke-width="1"/><rect width="8.69" height="4.89" transform="translate(18.54 11.043)" fill="none" stroke="#fff" stroke-linecap="round" stroke-linejoin="round" stroke-width="1"/><rect width="8.69" height="4.88" transform="translate(5.79 15.933)" fill="none" stroke="#fff" stroke-linecap="round" stroke-linejoin="round" stroke-width="1"/><rect width="8.69" height="4.89" transform="translate(5.79 11.043)" fill="none" stroke="#fff" stroke-linecap="round" stroke-linejoin="round" stroke-width="1"/><path d="M44.15-70.53l1.72,7.59a7.337,7.337,0,0,1,.81-.05c3.06,0,5.54,2.46,9.92,2.46s4.8-3.2,9.94-3.2,9.67,2.81,14.62,2.81,5.45-2.81,11.33-2.81a21.34,21.34,0,0,1,3.13.22l6.05-10.1H90.92l-2.49,3.07-.01.01H59.43V-80.7l2.3-2.31v-3.45H52.7v3.45l2.5,2.31v.39h.17v9.77H55.2v.01Z" transform="translate(-40.89 91.353)" fill="none" stroke="#fff" stroke-linecap="round" stroke-linejoin="round" stroke-width="1"/><path d="M90.62-70.54v-9.77" transform="translate(-76.31 91.353)" fill="none" stroke="#fff" stroke-linecap="round" stroke-linejoin="round" stroke-width="1"/><line y1="4.889" transform="translate(16.311)" fill="none" stroke="#fff" stroke-linecap="round" stroke-linejoin="round" stroke-width="1"/><path d="M104.93-62.94a11.685,11.685,0,0,0-4.98,1.93" transform="translate(-99.95 91.353)" fill="none" stroke="#fff" stroke-linecap="round" stroke-linejoin="round" stroke-width="1"/><path d="M50.2-61.53a15.68,15.68,0,0,0-6.05-1.98" transform="translate(10.58 91.353)" fill="none" stroke="#fff" stroke-linecap="round" stroke-linejoin="round" stroke-width="1"/></g><path d="M7.178,0a7.178,7.178,0,1,0,7.178,7.178A7.178,7.178,0,0,0,7.178,0Z" transform="translate(35.923 0)" fill="#d9000d" stroke="#fff" stroke-linecap="round" stroke-width="1"/><path d="M65.973-88.909v3.867l-4.144,3.254" transform="translate(-22.872 92.22)" fill="none" stroke="#fff" stroke-linecap="round" stroke-linejoin="round" stroke-width="1"/></g></svg>